<svg width="130" height="37" viewBox="0 0 130 37" fill="none" xmlns="http://www.w3.org/2000/svg">
<path d="M11.4534 36.584C9.82144 36.584 8.44544 36.152 7.32544 35.288C6.23744 34.424 5.37344 33.24 4.73344 31.736C4.09344 30.232 3.62944 28.536 3.34144 26.648C3.05344 24.728 2.89344 22.728 2.86144 20.648L1.90144 20.456C1.58144 20.36 1.29344 20.024 1.03744 19.448C0.781438 18.84 0.637438 18.408 0.605438 18.152C0.605438 17.992 0.637438 17.912 0.701438 17.912C0.765438 17.88 0.813438 17.864 0.845438 17.864C1.19744 17.896 1.54944 17.944 1.90144 18.008C2.25344 18.04 2.58944 18.072 2.90944 18.104C2.94144 17.208 2.98944 16.088 3.05344 14.744C3.14944 13.368 3.24544 11.992 3.34144 10.616C3.46944 9.208 3.61344 8.024 3.77344 7.064C3.58144 7 3.38944 6.952 3.19744 6.92C3.00544 6.888 2.81344 6.84 2.62144 6.776C2.30144 6.552 2.06144 6.216 1.90144 5.768C1.74144 5.32 1.66144 5.016 1.66144 4.856C1.66144 4.696 1.69344 4.616 1.75744 4.616L5.16544 4.904L8.66944 2.504L9.91744 3.272L9.34144 4.952C11.4214 4.92 13.4854 4.728 15.5334 4.376C17.5814 4.024 19.5014 3.4 21.2934 2.504L22.1094 3.752L20.5254 7.88C18.2854 8.168 16.0934 8.312 13.9494 8.312C13.0534 8.312 12.1574 8.296 11.2614 8.264C10.3974 8.2 9.51744 8.104 8.62144 7.976C8.30144 9.416 7.98144 11.032 7.66144 12.824C7.37344 14.584 7.14944 16.392 6.98944 18.248H8.09344C10.2694 18.248 12.1254 18.072 13.6614 17.72C15.2294 17.368 16.5254 16.984 17.5494 16.568L17.9814 17.384L16.5414 20.696C15.6454 20.856 14.6534 20.984 13.5654 21.08C12.5094 21.176 11.5174 21.224 10.5894 21.224C9.30944 21.224 8.04544 21.176 6.79744 21.08C6.76544 21.4 6.74944 21.72 6.74944 22.04C6.74944 22.36 6.74944 22.68 6.74944 23C6.74944 24.952 6.94144 26.76 7.32544 28.424C7.70944 30.056 8.28544 31.368 9.05344 32.36C9.85344 33.32 10.8614 33.8 12.0774 33.8C14.0934 33.8 15.6614 33.096 16.7814 31.688C17.9014 30.248 18.8614 28.072 19.6614 25.16C19.7254 24.904 19.8374 24.776 19.9974 24.776C20.1574 24.776 20.3654 24.824 20.6214 24.92C20.9094 25.016 21.1974 25.192 21.4854 25.448C21.0694 27.528 20.4454 29.416 19.6134 31.112C18.8134 32.808 17.7414 34.136 16.3974 35.096C15.0854 36.088 13.4374 36.584 11.4534 36.584ZM27.0531 36.488C26.7971 36.488 26.6691 36.408 26.6691 36.248C27.5331 32.568 28.1251 29.096 28.4451 25.832C28.7651 22.536 28.9251 19.528 28.9251 16.808C28.9251 14.696 28.8291 12.664 28.6371 10.712C28.4451 8.76 28.2051 7 27.9171 5.432C27.6291 3.832 27.3411 2.552 27.0531 1.592L28.2531 0.823999L32.0931 2.648C32.4771 5.208 32.6371 7.976 32.5731 10.952C32.5411 13.928 32.3651 16.936 32.0451 19.976C31.7251 22.984 31.3091 25.848 30.7971 28.568C30.3171 31.288 29.8051 33.656 29.2611 35.672C29.0371 35.896 28.6851 36.088 28.2051 36.248C27.7251 36.408 27.3411 36.488 27.0531 36.488ZM43.6701 36.056C41.6541 36.056 40.1021 35.32 39.0141 33.848C37.9261 32.376 37.3821 30.456 37.3821 28.088C37.3821 26.584 37.5901 25.032 38.0061 23.432C38.4541 21.8 39.1741 20.232 40.1661 18.728C41.1901 17.224 42.5661 15.896 44.2941 14.744C46.0221 13.592 48.1821 12.712 50.7741 12.104C51.8941 12.488 52.6621 13.192 53.0781 14.216C53.4941 15.24 53.7021 16.28 53.7021 17.336C53.3181 18.904 52.5981 20.248 51.5421 21.368C50.5181 22.488 49.3501 23.416 48.0381 24.152C46.7261 24.856 45.4781 25.416 44.2941 25.832C43.1101 26.216 42.1821 26.472 41.5101 26.6C41.6701 28.264 42.1021 29.464 42.8061 30.2C43.5421 30.936 44.3741 31.304 45.3021 31.304C46.7741 31.304 48.1501 30.68 49.4301 29.432C50.7101 28.152 51.8781 26.408 52.9341 24.2C52.9981 24.008 53.1101 23.912 53.2701 23.912C53.4301 23.912 53.6541 23.992 53.9421 24.152C54.2301 24.28 54.4861 24.424 54.7101 24.584C53.8461 26.696 52.8061 28.632 51.5901 30.392C50.4061 32.12 49.1261 33.496 47.7501 34.52C46.4061 35.544 45.0461 36.056 43.6701 36.056ZM41.5101 24.68C43.4301 24.168 44.9981 23.512 46.2141 22.712C47.4301 21.88 48.3261 21.016 48.9021 20.12C49.4781 19.192 49.7661 18.344 49.7661 17.576C49.7661 17.128 49.6221 16.744 49.3341 16.424C49.0461 16.072 48.6301 15.896 48.0861 15.896C47.3501 15.896 46.4861 16.216 45.4941 16.856C44.5341 17.464 43.6541 18.408 42.8541 19.688C42.0861 20.968 41.6381 22.632 41.5101 24.68ZM64.1076 36.056C62.0916 36.056 60.5396 35.32 59.4516 33.848C58.3636 32.376 57.8196 30.456 57.8196 28.088C57.8196 26.552 58.0436 24.952 58.4916 23.288C58.9396 21.592 59.7236 19.96 60.8436 18.392C61.9636 16.792 63.4996 15.368 65.4516 14.12C67.4356 12.84 69.9316 11.832 72.9396 11.096L73.9956 12.008L72.4596 16.28C71.4036 15.864 70.3796 15.656 69.3876 15.656C67.7876 15.656 66.4276 16.152 65.3076 17.144C64.1876 18.136 63.3396 19.4 62.7636 20.936C62.2196 22.472 61.9476 24.04 61.9476 25.64C61.9476 27.496 62.3316 28.904 63.0996 29.864C63.8676 30.824 64.7476 31.304 65.7396 31.304C66.9556 31.304 68.1076 30.68 69.1956 29.432C70.3156 28.152 71.3236 26.408 72.2196 24.2C72.2836 24.008 72.3956 23.912 72.5556 23.912C72.7156 23.912 72.9396 23.992 73.2276 24.152C73.5476 24.28 73.8196 24.424 74.0436 24.584C73.5316 26.696 72.7476 28.632 71.6916 30.392C70.6676 32.12 69.4836 33.496 68.1396 34.52C66.8276 35.544 65.4836 36.056 64.1076 36.056Z" fill="black"/>
<path d="M83.0293 11.624C82.5493 12.36 81.9733 12.808 81.3013 12.968C80.6613 13.128 80.0373 13.08 79.4293 12.824C78.8213 12.568 78.3093 12.152 77.8933 11.576C77.5093 10.968 77.3493 10.28 77.4133 9.512C77.4453 9 77.5733 8.44 77.7973 7.832C78.0213 7.224 78.2933 6.648 78.6133 6.104C78.9653 5.528 79.3333 5 79.7173 4.52C80.1333 4.008 80.5493 3.576 80.9653 3.224C81.7333 2.616 82.5973 2.088 83.5573 1.64C84.5493 1.192 85.5733 0.855998 86.6293 0.631999C87.7173 0.407998 88.7893 0.311997 89.8453 0.343997C90.9333 0.375998 91.9413 0.535999 92.8693 0.823999C95.4293 1.624 97.4133 2.888 98.8213 4.616C100.229 6.344 100.933 8.584 100.933 11.336C100.933 12.648 100.805 13.832 100.549 14.888C100.325 15.912 99.9093 16.904 99.3013 17.864C98.7253 18.824 97.9413 19.8 96.9493 20.792C95.9893 21.784 94.7893 22.872 93.3493 24.056C92.8693 24.472 92.3733 24.888 91.8613 25.304C91.3493 25.72 90.8373 26.136 90.3253 26.552C90.1653 26.68 89.8613 26.872 89.4133 27.128C88.9653 27.384 88.5653 27.64 88.2133 27.896C87.8613 28.152 87.6533 28.392 87.5893 28.616C87.5253 28.84 87.7813 28.968 88.3573 29C89.0613 29.064 89.6213 29.08 90.0373 29.048C90.4533 29.016 91.0133 29 91.7173 29C92.5493 29 93.3653 28.984 94.1653 28.952C94.9653 28.92 95.7653 28.936 96.5653 29C96.8853 29.032 97.2373 29.048 97.6213 29.048C98.0053 29.016 98.3893 29.016 98.7733 29.048C99.1573 29.048 99.5253 29.096 99.8773 29.192C100.229 29.256 100.533 29.4 100.789 29.624C101.045 29.848 101.237 30.152 101.365 30.536C101.493 30.92 101.557 31.336 101.557 31.784C101.589 32.2 101.557 32.616 101.461 33.032C101.365 33.416 101.205 33.72 100.981 33.944C100.565 34.424 100.053 34.664 99.4453 34.664C98.8373 34.632 98.2613 34.616 97.7173 34.616H80.4853C80.1653 34.616 79.8133 34.632 79.4293 34.664C79.0773 34.696 78.7573 34.664 78.4693 34.568C77.8933 34.408 77.6053 34.104 77.6053 33.656C77.6373 33.208 77.6533 32.744 77.6533 32.264C77.6533 31.464 77.8453 30.728 78.2293 30.056C78.6133 29.352 79.0933 28.712 79.6693 28.136C80.2773 27.528 80.9173 26.968 81.5893 26.456C82.2613 25.944 82.8853 25.448 83.4613 24.968C84.2933 24.232 85.1893 23.496 86.1493 22.76C87.1093 22.024 88.0213 21.288 88.8853 20.552C90.0053 19.624 90.9493 18.776 91.7173 18.008C92.5173 17.24 93.1573 16.52 93.6373 15.848C94.1173 15.176 94.4693 14.52 94.6933 13.88C94.9173 13.208 95.0293 12.504 95.0293 11.768C95.0293 10.136 94.5333 8.888 93.5413 8.024C92.5493 7.128 91.2853 6.68 89.7493 6.68C88.6293 6.68 87.5733 6.92 86.5813 7.4C85.6213 7.88 84.8213 8.584 84.1813 9.512C83.9893 9.864 83.7973 10.232 83.6053 10.616C83.4453 10.968 83.2533 11.304 83.0293 11.624ZM108.467 1.448C108.755 1.16 109.123 0.983999 109.571 0.919998C110.051 0.823997 110.611 0.775997 111.251 0.775997H123.107C123.523 0.775997 123.987 0.775997 124.499 0.775997C125.043 0.743998 125.555 0.775998 126.035 0.871999C126.515 0.967999 126.931 1.144 127.283 1.4C127.667 1.624 127.939 1.992 128.099 2.504C128.195 2.824 128.227 3.192 128.195 3.608C128.195 4.024 128.115 4.424 127.955 4.808C127.827 5.16 127.619 5.48 127.331 5.768C127.043 6.024 126.691 6.168 126.275 6.2C125.443 6.36 124.579 6.408 123.683 6.344C122.787 6.248 121.923 6.2 121.091 6.2C120.163 6.2 119.347 6.232 118.643 6.296C117.939 6.36 117.139 6.392 116.243 6.392C115.891 6.392 115.443 6.376 114.899 6.344C114.355 6.312 113.939 6.344 113.651 6.44C113.395 6.504 113.187 6.632 113.027 6.824C112.899 7.016 112.803 7.24 112.739 7.496C112.675 7.72 112.643 7.96 112.643 8.216C112.643 8.472 112.643 8.696 112.643 8.888C112.643 9.432 112.611 9.992 112.547 10.568C112.515 11.112 112.483 11.656 112.451 12.2C112.387 12.936 112.483 13.352 112.739 13.448C113.027 13.512 113.507 13.448 114.179 13.256C115.331 12.968 116.515 12.824 117.731 12.824C119.363 12.824 120.883 13.048 122.291 13.496C123.699 13.912 124.915 14.568 125.939 15.464C126.995 16.328 127.811 17.432 128.387 18.776C128.995 20.088 129.299 21.624 129.299 23.384C129.299 23.704 129.283 24.008 129.251 24.296C129.251 24.584 129.219 24.872 129.155 25.16C128.899 27.176 128.147 28.952 126.899 30.488C125.651 32.024 124.067 33.128 122.147 33.8C119.875 34.664 117.523 35.064 115.091 35C112.659 34.904 110.419 34.2 108.371 32.888C107.795 32.536 107.267 32.12 106.787 31.64C106.307 31.128 105.955 30.552 105.731 29.912C105.475 29.24 105.395 28.552 105.491 27.848C105.619 27.112 106.051 26.568 106.787 26.216C107.331 25.96 107.827 25.88 108.275 25.976C108.755 26.04 109.203 26.2 109.619 26.456C110.035 26.68 110.435 26.968 110.819 27.32C111.235 27.64 111.651 27.912 112.067 28.136C112.803 28.488 113.571 28.792 114.371 29.048C115.171 29.272 116.019 29.384 116.915 29.384C118.899 29.384 120.483 28.856 121.667 27.8C122.883 26.744 123.491 25.32 123.491 23.528C123.491 21.8 122.867 20.456 121.619 19.496C120.371 18.504 118.691 18.008 116.579 18.008C116.035 18.008 115.491 18.04 114.947 18.104C114.403 18.168 113.859 18.28 113.315 18.44C112.803 18.568 112.291 18.712 111.779 18.872C111.299 19.032 110.819 19.144 110.339 19.208C109.859 19.24 109.379 19.192 108.899 19.064C108.451 18.904 108.019 18.568 107.603 18.056C107.187 17.608 106.979 17.064 106.979 16.424C106.979 15.784 107.011 15.192 107.075 14.648C107.139 13.72 107.187 12.792 107.219 11.864C107.251 10.936 107.299 10.008 107.363 9.08C107.427 8.152 107.475 7.24 107.507 6.344C107.571 5.416 107.635 4.488 107.699 3.56C107.731 3.016 107.811 2.584 107.939 2.264C108.067 1.944 108.243 1.672 108.467 1.448Z" fill="#3E71DF"/>
</svg>
